<svg width="1025" height="255" viewBox="0 0 1025 255" fill="none" xmlns="http://www.w3.org/2000/svg">
<path d="M0 0H1025V155C1025 210.228 980.228 255 925 255H100C44.7716 255 0 210.228 0 155V0Z" fill="#222328"/>
<path d="M280.455 156V159.562H258.962V156H280.455ZM346.695 148.336L353.492 121.875H357.054L356.656 128.695L349.39 156H345.687L346.695 148.336ZM341.609 121.875L347.117 148.125L347.609 156H343.671L335.773 121.875H341.609ZM364.765 148.055L370.202 121.875H376.062L368.163 156H364.226L364.765 148.055ZM358.437 121.875L365.163 148.406L366.148 156H362.445L355.296 128.695L354.921 121.875H358.437ZM428.752 138V139.875C428.752 142.453 428.416 144.766 427.744 146.812C427.073 148.859 426.112 150.602 424.862 152.039C423.627 153.477 422.143 154.578 420.408 155.344C418.674 156.094 416.752 156.469 414.643 156.469C412.549 156.469 410.635 156.094 408.901 155.344C407.182 154.578 405.69 153.477 404.424 152.039C403.158 150.602 402.174 148.859 401.471 146.812C400.783 144.766 400.44 142.453 400.44 139.875V138C400.44 135.422 400.783 133.117 401.471 131.086C402.158 129.039 403.127 127.297 404.377 125.859C405.643 124.406 407.135 123.305 408.854 122.555C410.588 121.789 412.502 121.406 414.596 121.406C416.705 121.406 418.627 121.789 420.362 122.555C422.096 123.305 423.588 124.406 424.838 125.859C426.088 127.297 427.049 129.039 427.721 131.086C428.408 133.117 428.752 135.422 428.752 138ZM422.869 139.875V137.953C422.869 136.047 422.682 134.367 422.307 132.914C421.948 131.445 421.408 130.219 420.69 129.234C419.987 128.234 419.119 127.484 418.088 126.984C417.057 126.469 415.893 126.211 414.596 126.211C413.299 126.211 412.143 126.469 411.127 126.984C410.112 127.484 409.244 128.234 408.526 129.234C407.823 130.219 407.283 131.445 406.908 132.914C406.533 134.367 406.346 136.047 406.346 137.953V139.875C406.346 141.781 406.533 143.469 406.908 144.938C407.283 146.406 407.83 147.648 408.549 148.664C409.283 149.664 410.158 150.422 411.174 150.938C412.19 151.438 413.346 151.688 414.643 151.688C415.955 151.688 417.119 151.438 418.135 150.938C419.151 150.422 420.01 149.664 420.713 148.664C421.416 147.648 421.948 146.406 422.307 144.938C422.682 143.469 422.869 141.781 422.869 139.875ZM455.755 121.875H467.825C470.419 121.875 472.63 122.266 474.458 123.047C476.286 123.828 477.685 124.984 478.653 126.516C479.638 128.031 480.13 129.906 480.13 132.141C480.13 133.844 479.818 135.344 479.193 136.641C478.568 137.938 477.685 139.031 476.544 139.922C475.403 140.797 474.044 141.477 472.466 141.961L470.685 142.828H459.833L459.786 138.164H467.919C469.325 138.164 470.497 137.914 471.435 137.414C472.372 136.914 473.075 136.234 473.544 135.375C474.028 134.5 474.271 133.516 474.271 132.422C474.271 131.234 474.036 130.203 473.568 129.328C473.114 128.438 472.411 127.758 471.458 127.289C470.505 126.805 469.294 126.562 467.825 126.562H461.638V156H455.755V121.875ZM475.232 156L467.216 140.672L473.38 140.648L481.513 155.695V156H475.232ZM512.992 121.875V156H507.109V121.875H512.992ZM533.5 121.875L519.672 138.305L511.797 146.648L510.766 140.812L516.391 133.875L526.328 121.875H533.5ZM527.172 156L515.945 139.828L520 135.82L534.156 156H527.172ZM585.018 138V139.875C585.018 142.453 584.682 144.766 584.011 146.812C583.339 148.859 582.378 150.602 581.128 152.039C579.893 153.477 578.409 154.578 576.675 155.344C574.94 156.094 573.018 156.469 570.909 156.469C568.815 156.469 566.901 156.094 565.167 155.344C563.448 154.578 561.956 153.477 560.69 152.039C559.425 150.602 558.44 148.859 557.737 146.812C557.05 144.766 556.706 142.453 556.706 139.875V138C556.706 135.422 557.05 133.117 557.737 131.086C558.425 129.039 559.393 127.297 560.643 125.859C561.909 124.406 563.401 123.305 565.12 122.555C566.854 121.789 568.768 121.406 570.862 121.406C572.972 121.406 574.893 121.789 576.628 122.555C578.362 123.305 579.854 124.406 581.104 125.859C582.354 127.297 583.315 129.039 583.987 131.086C584.675 133.117 585.018 135.422 585.018 138ZM579.136 139.875V137.953C579.136 136.047 578.948 134.367 578.573 132.914C578.214 131.445 577.675 130.219 576.956 129.234C576.253 128.234 575.386 127.484 574.354 126.984C573.323 126.469 572.159 126.211 570.862 126.211C569.565 126.211 568.409 126.469 567.393 126.984C566.378 127.484 565.511 128.234 564.792 129.234C564.089 130.219 563.55 131.445 563.175 132.914C562.8 134.367 562.612 136.047 562.612 137.953V139.875C562.612 141.781 562.8 143.469 563.175 144.938C563.55 146.406 564.097 147.648 564.815 148.664C565.55 149.664 566.425 150.422 567.44 150.938C568.456 151.438 569.612 151.688 570.909 151.688C572.222 151.688 573.386 151.438 574.401 150.938C575.417 150.422 576.276 149.664 576.979 148.664C577.682 147.648 578.214 146.406 578.573 144.938C578.948 143.469 579.136 141.781 579.136 139.875ZM631.17 121.875H637.029V144.68C637.029 147.273 636.467 149.445 635.342 151.195C634.217 152.945 632.685 154.266 630.748 155.156C628.826 156.031 626.677 156.469 624.302 156.469C621.849 156.469 619.662 156.031 617.74 155.156C615.818 154.266 614.302 152.945 613.193 151.195C612.099 149.445 611.552 147.273 611.552 144.68V121.875H617.412V144.68C617.412 146.32 617.693 147.672 618.256 148.734C618.818 149.781 619.615 150.555 620.646 151.055C621.677 151.555 622.896 151.805 624.302 151.805C625.709 151.805 626.92 151.555 627.935 151.055C628.967 150.555 629.763 149.781 630.326 148.734C630.888 147.672 631.17 146.32 631.17 144.68V121.875ZM678.587 121.875V156H672.751V121.875H678.587ZM689.297 121.875V126.562H662.133V121.875H689.297ZM766.061 156V159.562H744.569V156H766.061Z" fill="#946FFF"/>
<path d="M440.719 177.25H442.047L451.047 198.188L460.047 177.25H461.375L451.531 200H450.547L440.719 177.25ZM440.328 177.25H441.516L441.594 189.422V200H440.328V177.25ZM460.609 177.25H461.797V200H460.531V189.422L460.609 177.25ZM475.047 178.219L466.953 200H465.609L474.156 177.25H475.203L475.047 178.219ZM482.703 200L474.625 178.219L474.469 177.25H475.5L484.062 200H482.703ZM480.703 192.203V193.375H469.031V192.203H480.703ZM504.219 177.25V200H502.953L488.891 179.422V200H487.609V177.25H488.891L502.953 197.797V177.25H504.219ZM517.484 178.219L509.391 200H508.047L516.594 177.25H517.641L517.484 178.219ZM525.141 200L517.062 178.219L516.906 177.25H517.938L526.5 200H525.141ZM523.141 192.203V193.375H511.469V192.203H523.141ZM546.047 189.484V197.453C545.797 197.807 545.344 198.208 544.688 198.656C544.042 199.104 543.182 199.495 542.109 199.828C541.036 200.151 539.74 200.312 538.219 200.312C536.906 200.312 535.703 200.073 534.609 199.594C533.526 199.115 532.589 198.427 531.797 197.531C531.005 196.625 530.391 195.552 529.953 194.312C529.526 193.062 529.312 191.677 529.312 190.156V186.812C529.312 185.323 529.516 183.979 529.922 182.781C530.339 181.573 530.927 180.531 531.688 179.656C532.448 178.781 533.354 178.109 534.406 177.641C535.469 177.172 536.646 176.938 537.938 176.938C539.604 176.938 541.005 177.229 542.141 177.812C543.286 178.385 544.182 179.167 544.828 180.156C545.474 181.146 545.87 182.26 546.016 183.5H544.75C544.594 182.542 544.266 181.656 543.766 180.844C543.276 180.021 542.557 179.359 541.609 178.859C540.661 178.349 539.438 178.094 537.938 178.094C536.802 178.094 535.781 178.307 534.875 178.734C533.969 179.151 533.193 179.745 532.547 180.516C531.911 181.286 531.422 182.203 531.078 183.266C530.745 184.328 530.578 185.5 530.578 186.781V190.156C530.578 191.49 530.755 192.708 531.109 193.812C531.474 194.906 531.99 195.854 532.656 196.656C533.333 197.458 534.141 198.078 535.078 198.516C536.026 198.943 537.073 199.156 538.219 199.156C539.427 199.156 540.479 199.036 541.375 198.797C542.281 198.557 543.016 198.271 543.578 197.938C544.151 197.594 544.552 197.276 544.781 196.984V190.656H538.156V189.484H546.047ZM565.766 198.844V200H552.5V198.844H565.766ZM553.062 177.25V200H551.797V177.25H553.062ZM564.172 187.703V188.875H552.5V187.703H564.172ZM565.734 177.25V178.406H552.5V177.25H565.734ZM569.953 177.25H577.25C578.75 177.25 580.068 177.505 581.203 178.016C582.339 178.526 583.224 179.271 583.859 180.25C584.505 181.229 584.828 182.432 584.828 183.859C584.828 184.953 584.594 185.943 584.125 186.828C583.656 187.714 583.021 188.448 582.219 189.031C581.417 189.604 580.51 189.979 579.5 190.156L578.953 190.359H570.562L570.531 189.203H577.891C579.151 189.203 580.198 188.948 581.031 188.438C581.875 187.927 582.505 187.266 582.922 186.453C583.349 185.63 583.562 184.766 583.562 183.859C583.562 182.724 583.307 181.755 582.797 180.953C582.297 180.141 581.573 179.516 580.625 179.078C579.688 178.63 578.562 178.406 577.25 178.406H571.219V200H569.953V177.25ZM584.438 200L578.344 189.906L579.75 189.891L585.781 199.781V200H584.438Z" fill="#707070"/>
<path d="M420.707 213.5H421.41V225.154L421.384 227H420.707V213.5ZM428.143 222.148V222.333C428.143 223.054 428.061 223.71 427.896 224.302C427.738 224.894 427.504 225.403 427.193 225.831C426.889 226.259 426.514 226.59 426.068 226.824C425.623 227.059 425.116 227.176 424.548 227.176C424.003 227.176 423.514 227.094 423.08 226.93C422.652 226.766 422.283 226.54 421.973 226.253C421.662 225.96 421.41 225.623 421.217 225.242C421.029 224.855 420.897 224.442 420.821 224.003V220.725C420.921 220.227 421.07 219.772 421.27 219.362C421.469 218.946 421.721 218.586 422.025 218.281C422.33 217.971 422.69 217.733 423.106 217.569C423.528 217.399 424.003 217.314 424.53 217.314C425.104 217.314 425.614 217.429 426.06 217.657C426.511 217.88 426.889 218.202 427.193 218.624C427.504 219.04 427.738 219.547 427.896 220.145C428.061 220.736 428.143 221.404 428.143 222.148ZM427.431 222.333V222.148C427.431 221.551 427.372 220.997 427.255 220.487C427.138 219.978 426.956 219.535 426.71 219.16C426.47 218.785 426.162 218.492 425.787 218.281C425.412 218.07 424.97 217.965 424.46 217.965C423.897 217.965 423.423 218.059 423.036 218.246C422.655 218.428 422.342 218.665 422.096 218.958C421.855 219.251 421.665 219.567 421.524 219.907C421.39 220.241 421.29 220.558 421.226 220.856V223.959C421.331 224.422 421.516 224.85 421.779 225.242C422.049 225.629 422.406 225.939 422.852 226.174C423.303 226.408 423.845 226.525 424.478 226.525C424.981 226.525 425.418 226.42 425.787 226.209C426.162 225.998 426.47 225.705 426.71 225.33C426.95 224.955 427.129 224.513 427.246 224.003C427.369 223.493 427.431 222.937 427.431 222.333ZM433.442 226.068L436.606 217.49H437.371L433.223 228.556C433.146 228.767 433.05 229.001 432.933 229.259C432.815 229.522 432.663 229.774 432.476 230.015C432.288 230.255 432.045 230.451 431.746 230.604C431.453 230.762 431.09 230.841 430.656 230.841C430.557 230.841 430.425 230.829 430.261 230.806C430.103 230.788 429.985 230.765 429.909 230.735L429.9 230.12C429.982 230.138 430.091 230.152 430.226 230.164C430.36 230.182 430.454 230.19 430.507 230.19C430.894 230.19 431.216 230.114 431.474 229.962C431.737 229.815 431.957 229.604 432.133 229.329C432.309 229.06 432.464 228.74 432.599 228.371L433.442 226.068ZM430.182 217.49L433.557 226.13L433.759 226.851L433.223 227.185L429.417 217.49H430.182Z" fill="#707070"/>
<path d="M448.56 223.159V214.203H450.757V223.159C450.757 224.009 450.575 224.732 450.212 225.33C449.849 225.928 449.354 226.385 448.727 226.701C448.1 227.018 447.388 227.176 446.591 227.176C445.776 227.176 445.053 227.038 444.42 226.763C443.793 226.487 443.301 226.065 442.943 225.497C442.586 224.929 442.407 224.208 442.407 223.335H444.622C444.622 223.839 444.701 224.246 444.859 224.557C445.023 224.861 445.252 225.084 445.545 225.225C445.844 225.359 446.192 225.427 446.591 225.427C446.972 225.427 447.309 225.342 447.602 225.172C447.9 224.996 448.135 224.741 448.305 224.407C448.475 224.067 448.56 223.651 448.56 223.159ZM461.752 219.547V221.296H454.958V219.547H461.752ZM455.503 214.203V227H453.297V214.203H455.503ZM463.448 214.203V227H461.251V214.203H463.448ZM476.28 220.25V220.953C476.28 221.92 476.154 222.787 475.902 223.555C475.65 224.322 475.29 224.976 474.821 225.515C474.358 226.054 473.802 226.467 473.151 226.754C472.501 227.035 471.78 227.176 470.989 227.176C470.204 227.176 469.486 227.035 468.836 226.754C468.191 226.467 467.632 226.054 467.157 225.515C466.683 224.976 466.313 224.322 466.05 223.555C465.792 222.787 465.663 221.92 465.663 220.953V220.25C465.663 219.283 465.792 218.419 466.05 217.657C466.308 216.89 466.671 216.236 467.14 215.697C467.614 215.152 468.174 214.739 468.818 214.458C469.469 214.171 470.187 214.027 470.972 214.027C471.763 214.027 472.483 214.171 473.134 214.458C473.784 214.739 474.344 215.152 474.812 215.697C475.281 216.236 475.642 216.89 475.894 217.657C476.151 218.419 476.28 219.283 476.28 220.25ZM474.074 220.953V220.232C474.074 219.518 474.004 218.888 473.863 218.343C473.729 217.792 473.526 217.332 473.257 216.963C472.993 216.588 472.668 216.307 472.281 216.119C471.895 215.926 471.458 215.829 470.972 215.829C470.485 215.829 470.052 215.926 469.671 216.119C469.29 216.307 468.965 216.588 468.695 216.963C468.432 217.332 468.229 217.792 468.089 218.343C467.948 218.888 467.878 219.518 467.878 220.232V220.953C467.878 221.668 467.948 222.301 468.089 222.852C468.229 223.402 468.435 223.868 468.704 224.249C468.979 224.624 469.308 224.908 469.688 225.102C470.069 225.289 470.503 225.383 470.989 225.383C471.481 225.383 471.918 225.289 472.299 225.102C472.68 224.908 473.002 224.624 473.266 224.249C473.529 223.868 473.729 223.402 473.863 222.852C474.004 222.301 474.074 221.668 474.074 220.953ZM488.638 214.203V227H486.432L480.692 217.833V227H478.486V214.203H480.692L486.449 223.388V214.203H488.638ZM493.621 214.203V227H491.415V214.203H493.621ZM510.672 220.461V225.348C510.49 225.588 510.206 225.852 509.819 226.139C509.438 226.42 508.932 226.663 508.299 226.868C507.666 227.073 506.878 227.176 505.935 227.176C505.132 227.176 504.396 227.041 503.729 226.771C503.061 226.496 502.483 226.095 501.997 225.567C501.517 225.04 501.145 224.398 500.881 223.643C500.617 222.881 500.485 222.014 500.485 221.041V220.153C500.485 219.187 500.605 218.325 500.846 217.569C501.092 216.808 501.443 216.163 501.9 215.636C502.357 215.108 502.908 214.71 503.553 214.44C504.203 214.165 504.938 214.027 505.759 214.027C506.808 214.027 507.675 214.203 508.36 214.555C509.052 214.9 509.585 215.381 509.96 215.996C510.335 216.611 510.572 217.314 510.672 218.105H508.51C508.439 217.66 508.302 217.262 508.097 216.91C507.897 216.559 507.61 216.283 507.235 216.084C506.866 215.879 506.386 215.776 505.794 215.776C505.284 215.776 504.836 215.873 504.449 216.066C504.062 216.26 503.74 216.544 503.482 216.919C503.23 217.294 503.04 217.751 502.911 218.29C502.782 218.829 502.718 219.444 502.718 220.136V221.041C502.718 221.744 502.791 222.368 502.938 222.913C503.09 223.458 503.307 223.918 503.588 224.293C503.875 224.668 504.224 224.952 504.634 225.146C505.044 225.333 505.507 225.427 506.022 225.427C506.526 225.427 506.939 225.386 507.262 225.304C507.584 225.216 507.839 225.113 508.026 224.996C508.22 224.873 508.369 224.756 508.475 224.645V222.104H505.812V220.461H510.672ZM515.471 214.203V227H513.265V214.203H515.471ZM523.354 215.908L519.531 227H517.22L522.036 214.203H523.513L523.354 215.908ZM526.554 227L522.722 215.908L522.555 214.203H524.04L528.874 227H526.554ZM526.369 222.254V224.003H519.408V222.254H526.369ZM537.725 222.834H539.922C539.852 223.672 539.617 224.419 539.219 225.075C538.82 225.726 538.261 226.238 537.54 226.613C536.819 226.988 535.943 227.176 534.912 227.176C534.121 227.176 533.409 227.035 532.776 226.754C532.144 226.467 531.602 226.062 531.15 225.541C530.699 225.014 530.354 224.378 530.113 223.634C529.879 222.89 529.762 222.058 529.762 221.138V220.074C529.762 219.154 529.882 218.322 530.122 217.578C530.368 216.834 530.72 216.198 531.177 215.671C531.634 215.138 532.182 214.73 532.82 214.449C533.465 214.168 534.188 214.027 534.991 214.027C536.011 214.027 536.872 214.215 537.575 214.59C538.278 214.965 538.823 215.483 539.21 216.146C539.603 216.808 539.843 217.566 539.931 218.422H537.733C537.675 217.871 537.546 217.399 537.347 217.007C537.153 216.614 536.866 216.315 536.485 216.11C536.104 215.899 535.606 215.794 534.991 215.794C534.487 215.794 534.048 215.888 533.673 216.075C533.298 216.263 532.984 216.538 532.732 216.901C532.48 217.265 532.29 217.713 532.161 218.246C532.038 218.773 531.977 219.377 531.977 220.057V221.138C531.977 221.782 532.032 222.368 532.144 222.896C532.261 223.417 532.437 223.865 532.671 224.24C532.911 224.615 533.216 224.905 533.585 225.11C533.954 225.315 534.396 225.418 534.912 225.418C535.539 225.418 536.046 225.318 536.433 225.119C536.825 224.92 537.121 224.63 537.32 224.249C537.525 223.862 537.66 223.391 537.725 222.834ZM552.13 220.25V220.953C552.13 221.92 552.004 222.787 551.752 223.555C551.5 224.322 551.14 224.976 550.671 225.515C550.208 226.054 549.651 226.467 549.001 226.754C548.351 227.035 547.63 227.176 546.839 227.176C546.054 227.176 545.336 227.035 544.686 226.754C544.041 226.467 543.481 226.054 543.007 225.515C542.532 224.976 542.163 224.322 541.899 223.555C541.642 222.787 541.513 221.92 541.513 220.953V220.25C541.513 219.283 541.642 218.419 541.899 217.657C542.157 216.89 542.521 216.236 542.989 215.697C543.464 215.152 544.023 214.739 544.668 214.458C545.318 214.171 546.036 214.027 546.821 214.027C547.612 214.027 548.333 214.171 548.983 214.458C549.634 214.739 550.193 215.152 550.662 215.697C551.131 216.236 551.491 216.89 551.743 217.657C552.001 218.419 552.13 219.283 552.13 220.25ZM549.924 220.953V220.232C549.924 219.518 549.854 218.888 549.713 218.343C549.578 217.792 549.376 217.332 549.106 216.963C548.843 216.588 548.518 216.307 548.131 216.119C547.744 215.926 547.308 215.829 546.821 215.829C546.335 215.829 545.901 215.926 545.521 216.119C545.14 216.307 544.814 216.588 544.545 216.963C544.281 217.332 544.079 217.792 543.938 218.343C543.798 218.888 543.728 219.518 543.728 220.232V220.953C543.728 221.668 543.798 222.301 543.938 222.852C544.079 223.402 544.284 223.868 544.554 224.249C544.829 224.624 545.157 224.908 545.538 225.102C545.919 225.289 546.353 225.383 546.839 225.383C547.331 225.383 547.768 225.289 548.148 225.102C548.529 224.908 548.852 224.624 549.115 224.249C549.379 223.868 549.578 223.402 549.713 222.852C549.854 222.301 549.924 221.668 549.924 220.953ZM555.232 214.203H557.201L560.901 224.073L564.593 214.203H566.562L561.675 227H560.11L555.232 214.203ZM554.336 214.203H556.208L556.533 222.746V227H554.336V214.203ZM565.586 214.203H567.467V227H565.261V222.746L565.586 214.203ZM580.29 220.25V220.953C580.29 221.92 580.164 222.787 579.912 223.555C579.66 224.322 579.3 224.976 578.831 225.515C578.368 226.054 577.812 226.467 577.161 226.754C576.511 227.035 575.79 227.176 574.999 227.176C574.214 227.176 573.496 227.035 572.846 226.754C572.201 226.467 571.642 226.054 571.167 225.515C570.692 224.976 570.323 224.322 570.06 223.555C569.802 222.787 569.673 221.92 569.673 220.953V220.25C569.673 219.283 569.802 218.419 570.06 217.657C570.317 216.89 570.681 216.236 571.149 215.697C571.624 215.152 572.184 214.739 572.828 214.458C573.479 214.171 574.196 214.027 574.981 214.027C575.772 214.027 576.493 214.171 577.144 214.458C577.794 214.739 578.354 215.152 578.822 215.697C579.291 216.236 579.651 216.89 579.903 217.657C580.161 218.419 580.29 219.283 580.29 220.25ZM578.084 220.953V220.232C578.084 219.518 578.014 218.888 577.873 218.343C577.738 217.792 577.536 217.332 577.267 216.963C577.003 216.588 576.678 216.307 576.291 216.119C575.904 215.926 575.468 215.829 574.981 215.829C574.495 215.829 574.062 215.926 573.681 216.119C573.3 216.307 572.975 216.588 572.705 216.963C572.441 217.332 572.239 217.792 572.099 218.343C571.958 218.888 571.888 219.518 571.888 220.232V220.953C571.888 221.668 571.958 222.301 572.099 222.852C572.239 223.402 572.444 223.868 572.714 224.249C572.989 224.624 573.317 224.908 573.698 225.102C574.079 225.289 574.513 225.383 574.999 225.383C575.491 225.383 575.928 225.289 576.309 225.102C576.689 224.908 577.012 224.624 577.275 224.249C577.539 223.868 577.738 223.402 577.873 222.852C578.014 222.301 578.084 221.668 578.084 220.953ZM590.512 225.251V227H584.087V225.251H590.512ZM584.702 214.203V227H582.496V214.203H584.702ZM600.232 225.251V227H593.808V225.251H600.232ZM594.423 214.203V227H592.217V214.203H594.423ZM604.293 214.203V227H602.087V214.203H604.293Z" fill="#946FFF"/>
</svg>
